<?xml version="1.0" standalone="no"?>
<!DOCTYPE svg PUBLIC "-//W3C//DTD SVG 1.1//EN" "http://www.w3.org/Graphics/SVG/1.1/DTD/svg11.dtd" >
<svg xmlns="http://www.w3.org/2000/svg">
<metadata>
This is a custom SVG webfont generated by Font Squirrel.
Copyright   : Copyright  Arkandis Digital Foundry under the GNU General Public License V2 and later with font exception
Designer    : Hirwen HARENDAL
Foundry     : Arkandis Digital Foundry
Foundry URL : httparkandistuxfamilyorg
</metadata>
<defs>
<font id="webfont1BdWgRRK" horiz-adv-x="1077" >
<font-face units-per-em="2048" ascent="1536" descent="-512" />
<missing-glyph horiz-adv-x="614" />
<glyph unicode=" "  horiz-adv-x="614" />
<glyph unicode="&#x09;" horiz-adv-x="614" />
<glyph unicode="&#xa0;" horiz-adv-x="614" />
<glyph unicode="!" horiz-adv-x="600" d="M213 1434h174v-682l-10 -320h-154l-10 320v682zM301 182q43 0 74 -30.5t31 -73.5t-31 -73t-74 -30t-72.5 30t-29.5 73t29.5 73.5t72.5 30.5z" />
<glyph unicode="&#x22;" horiz-adv-x="743" d="M283 1434v-516h-142v516h142zM602 1434v-516h-143v516h143z" />
<glyph unicode="#" horiz-adv-x="1241" d="M774 809h-244l-71 -301h248zM649 1323l-88 -375h246l90 375h133l-88 -375h264v-139h-297l-67 -301h266v-137h-299l-86 -371h-137l88 371h-248l-84 -371h-137l88 371h-264v137h295l69 301h-268v139h301l90 375h133z" />
<glyph unicode="$" horiz-adv-x="919" d="M500 -256h-84v250q-203 0 -355 127l82 115q86 -63 133.5 -82t139.5 -21v397q-176 29 -252 111t-80 221q0 147 89 235.5t243 96.5v240h84v-236q123 -4 278 -111l-78 -122q-74 59 -116 71q-35 12 -84 15v-369q190 -31 280 -113t90 -229q0 -158 -95 -247t-275 -99v-250z M416 698v353q-82 -2 -131 -51.5t-49 -127.5q4 -74 45 -116t135 -58zM500 508v-373q215 29 215 187q0 149 -215 186z" />
<glyph unicode="%" horiz-adv-x="1710" d="M1329 500q-80 0 -138 -57.5t-58 -137.5q0 -82 58 -139t140 -57q80 0 138.5 57t58.5 135q0 84 -57.5 141.5t-141.5 57.5zM1176 1362h129l-768 -1389h-129zM1329 635q139 0 236.5 -97.5t97.5 -236.5q0 -133 -99.5 -230.5t-232.5 -97.5q-137 0 -234.5 97.5t-97.5 234.5 q0 135 97.5 232.5t232.5 97.5zM379 1362q139 0 235.5 -97.5t96.5 -238.5q0 -133 -97.5 -231.5t-232.5 -98.5q-137 0 -235.5 98.5t-98.5 235.5t97.5 234.5t234.5 97.5zM379 1227q-82 0 -139.5 -57.5t-57.5 -139.5q0 -80 58.5 -138t140.5 -58q80 0 137 57t57 137 q0 84 -57 141.5t-139 57.5z" />
<glyph unicode="&#x26;" horiz-adv-x="1230" d="M868 0v6q-164 -29 -295 -29q-238 0 -364.5 105.5t-126.5 304.5q0 129 69.5 218t190.5 118q-229 61 -229 295q0 164 112.5 257t302.5 93q106 0 234 -61l-72 -150q-82 59 -145 60q-129 0 -195.5 -58.5t-66.5 -161.5q0 -98 66.5 -151t189.5 -53h51v-152h-45 q-139 0 -216 -67.5t-77 -186.5q0 -129 83 -195.5t243 -66.5q211 0 290 39v637h-127v117h127v237h156v-237h127v-117h-127v-801h-156z" />
<glyph unicode="'" horiz-adv-x="477" d="M403 1386l-249 -374l-72 47l199 401z" />
<glyph unicode="(" horiz-adv-x="516" d="M471 1434q-221 -424 -221 -856q0 -426 221 -824h-135q-252 410 -252 824q0 422 252 856h135z" />
<glyph unicode=")" horiz-adv-x="520" d="M45 1434h135q252 -432 252 -856q0 -414 -252 -824h-135q221 397 221 824q0 450 -221 856z" />
<glyph unicode="*" horiz-adv-x="745" d="M674 1294l-244 -139l244 -141l-39 -70l-225 146v-273h-80v273l-224 -146l-38 70l241 141l-241 139l38 74l224 -147v270h80v-270l225 147z" />
<glyph unicode="+" horiz-adv-x="878" d="M508 999v-348h326v-155h-326v-349h-143v349h-320v155h320v348h143z" />
<glyph unicode="," horiz-adv-x="438" d="M385 72l-250 -375l-72 47l199 401z" />
<glyph unicode="-" horiz-adv-x="735" d="M141 524h453v-135h-453v135z" />
<glyph unicode="." horiz-adv-x="446" d="M215 182q43 0 73.5 -30.5t30.5 -73.5t-30.5 -73t-73.5 -30t-72.5 30t-29.5 73t29.5 73.5t72.5 30.5z" />
<glyph unicode="/" horiz-adv-x="716" d="M532 1536h146l-508 -1704h-145z" />
<glyph unicode="0" horiz-adv-x="1198" d="M596 1325q-285 0 -285 -614.5t285 -614.5t285 614.5t-285 614.5zM596 1456q209 0 322.5 -190.5t113.5 -554.5q0 -362 -112.5 -549t-323.5 -187t-321.5 185.5t-110.5 550t110.5 555t321.5 190.5z" />
<glyph unicode="1" horiz-adv-x="651" d="M436 1434v-1434h-164v1272h-202l71 162h295z" />
<glyph unicode="2" horiz-adv-x="1040" d="M299 147h606v-147h-792v147l483 560q152 180 152 335q0 121 -75 200t-196 79h-4q-90 0 -153.5 -53.5t-67.5 -122.5h-146q2 127 115 220t252 93q190 0 306 -108.5t116 -294.5v-6q0 -209 -143 -381z" />
<glyph unicode="3" horiz-adv-x="1101" d="M86 289h166q23 -92 91.5 -142.5t170.5 -50.5q127 0 203 79t76 218q0 133 -71 214t-196 81v139q109 0 174.5 64.5t65.5 177.5q0 121 -66.5 188.5t-185.5 67.5q-96 0 -158.5 -48t-79.5 -136h-163q14 147 119.5 231t281.5 84q182 0 290.5 -97t108.5 -272q0 -121 -61 -205.5 t-174 -119.5q123 -33 193.5 -128t72.5 -241q0 -201 -111.5 -309.5t-318.5 -108.5q-383 1 -428 314z" />
<glyph unicode="4" horiz-adv-x="1114" d="M676 993l-324 -532h324v532zM834 1458v-997h184v-150h-184v-311h-158v311h-574v41l701 1106h31z" />
<glyph unicode="5" horiz-adv-x="1042" d="M336 1434h563l-33 -146h-436l-108 -366q57 12 116 16q207 0 332 -129t125 -356q0 -229 -126 -353.5t-355 -124.5q-180 0 -328 160l82 115q113 -135 242 -141q156 0 245.5 91t89.5 253q0 160 -91 253t-244 93q-127 0 -275 -76z" />
<glyph unicode="6" horiz-adv-x="1161" d="M582 938q193 0 326.5 -140.5t133.5 -342.5q0 -201 -134 -339.5t-326.5 -138.5t-327.5 137.5t-135 338.5q0 178 88 305l514 700l119 -74l-348 -469q10 6 43 15q22 8 47 8zM584 807q-123 0 -212 -105.5t-89 -249t88 -245t213 -101.5t214 101.5t89 245t-89 249t-214 105.5z " />
<glyph unicode="7" horiz-adv-x="952" d="M66 1434h806l-481 -1434h-164l430 1282h-591v152z" />
<glyph unicode="8" horiz-adv-x="1171" d="M584 692q-131 0 -205 -77.5t-74 -221.5q0 -139 74 -218t205 -79q129 0 203.5 79t74.5 218t-72.5 219t-205.5 80zM410 762q-104 29 -159.5 117t-55.5 215q0 170 101 266t288 96q182 0 286.5 -93t104.5 -269q0 -266 -217 -332q250 -66 256 -369q0 -201 -110.5 -309.5 t-319.5 -108.5t-320.5 105.5t-111.5 312.5q0 141 66.5 238.5t191.5 130.5zM342 1075q0 -121 62.5 -187.5t179.5 -66.5q115 0 178 67.5t63 186.5q0 250 -241 250q-117 0 -179.5 -63.5t-62.5 -186.5z" />
<glyph unicode="9" horiz-adv-x="1163" d="M580 494q-190 0 -325.5 140t-135.5 343q0 201 135 340t326 139q193 0 327.5 -138t134.5 -339q0 -182 -88 -305l-520 -701l-119 72l355 471q-43 -20 -90 -22zM578 625q123 0 212 105.5t89 248.5t-88.5 244.5t-213 101.5t-214 -101.5t-89.5 -244.5t89.5 -248.5 t214.5 -105.5z" />
<glyph unicode=":" horiz-adv-x="444" d="M215 182q43 0 73.5 -30.5t30.5 -73.5t-30.5 -73t-73.5 -30t-72.5 30t-29.5 73t29.5 73.5t72.5 30.5zM215 856q43 0 73.5 -30.5t30.5 -73.5t-30.5 -73t-73.5 -30t-72.5 30t-29.5 73t29.5 73.5t72.5 30.5z" />
<glyph unicode=";" horiz-adv-x="456" d="M244 856q43 0 73.5 -30.5t30.5 -73.5t-30.5 -73t-73.5 -30t-73 30t-30 73t30 73.5t73 30.5zM385 72l-250 -375l-72 47l199 401z" />
<glyph unicode="&#x3c;" horiz-adv-x="1200" d="M1120 823l-868 -301l868 -299v-149l-1079 381v137l1079 381v-150z" />
<glyph unicode="=" horiz-adv-x="1359" d="M141 760h1078v-139h-1078v139zM141 426h1078v-139h-1078v139z" />
<glyph unicode="&#x3e;" horiz-adv-x="1204" d="M82 823v150l1081 -381v-137l-1081 -381v149l868 299z" />
<glyph unicode="?" horiz-adv-x="845" d="M231 1120h-155q2 166 101 251t231 85q139 0 224 -74.5t91 -199.5q0 -35 -13.5 -73t-29.5 -65.5t-47 -64.5t-46.5 -53.5t-46.5 -46.5l-34 -33q-10 -10 -35 -38l-35 -40l-28 -35q-18 -23 -26.5 -37t-16 -32.5t-7.5 -34.5q0 -2 -1 -10.5t-1 -10.5q0 -43 21.5 -70.5 t56.5 -27.5h6h17q78 0 90 94h110q-4 -100 -62 -166.5t-159 -66.5h-8q-88 4 -160.5 72.5t-72.5 164.5q0 100 54 180t150 166q154 143 156 215q0 70 -38 103t-122 33q-68 0 -113 -48.5t-51 -136.5zM430 180q43 0 74 -30.5t31 -73.5t-31 -73t-74 -30t-72.5 30t-29.5 73 t29.5 73.5t72.5 30.5z" />
<glyph unicode="@" horiz-adv-x="1613" d="M590 455q0 -121 59.5 -191.5t165.5 -70.5q100 0 160.5 70.5t60.5 191.5q0 119 -60.5 189.5t-162.5 70.5q-98 0 -159.5 -67.5t-63.5 -192.5zM1049 199q-98 -131 -267 -131q-143 0 -234 107.5t-91 279.5q0 168 90 277.5t235 109.5q172 0 267 -131v112h118v-630 q123 20 191.5 115t73.5 249q0 248 -178.5 406.5t-415.5 162.5q-283 0 -468.5 -197.5t-185.5 -469.5q0 -281 186.5 -467.5t450.5 -186.5q211 0 408 162l76 -94q-207 -168 -484 -174q-221 0 -396 107.5t-266 279.5t-91 373q0 334 225 554t543 220q291 0 502.5 -195.5 t211.5 -478.5q0 -227 -134 -357t-367 -136v133z" />
<glyph unicode="A" horiz-adv-x="1171" d="M584 1051l-205 -533h412zM584 1456l577 -1456h-168l-139 371h-535l-141 -371h-168z" />
<glyph unicode="B" horiz-adv-x="1116" d="M297 698v-561h287q145 0 216.5 67.5t71.5 213.5q0 281 -288 280h-287zM297 1292v-456h266q264 0 264 227q0 223 -264 229h-266zM141 1434h434q188 0 296 -92.5t108 -258.5q0 -268 -221 -307q129 -33 201.5 -132t72.5 -249q0 -190 -113.5 -292.5t-324.5 -102.5h-453v1434z " />
<glyph unicode="C" horiz-adv-x="1161" d="M1098 1327l-82 -113q-143 106 -307 107q-221 0 -343 -157.5t-122 -454.5q0 -293 117.5 -449t347.5 -156q164 0 297 99l90 -107q-170 -123 -398 -123q-285 0 -449.5 196t-164.5 540q0 346 165 546.5t449 200.5q218 0 400 -129z" />
<glyph unicode="D" horiz-adv-x="1286" d="M299 1298v-1161h217q270 0 396 141.5t126 440.5t-126 439t-396 140h-217zM141 1440h351q362 0 534 -173t172 -548q0 -373 -171 -546t-535 -173h-351v1440z" />
<glyph unicode="E" horiz-adv-x="1007" d="M141 1434h793v-150h-635v-366h635v-150h-635v-623h651v-145h-809v1434z" />
<glyph unicode="F" horiz-adv-x="909" d="M141 1434h719v-150h-561v-366h561v-148h-561v-770h-158v1434z" />
<glyph unicode="G" horiz-adv-x="1282" d="M1026 184v410h-281v143h437v-622q-193 -139 -469 -140q-297 0 -463 193.5t-166 546t167 547t462 194.5q236 0 430 -125l-84 -121q-154 111 -334 111q-483 0 -483 -606q0 -600 483 -600q197 -1 301 69z" />
<glyph unicode="H" horiz-adv-x="1241" d="M141 1434h156v-592h645v592h158v-1434h-158v692h-645v-692h-156v1434z" />
<glyph unicode="I" horiz-adv-x="440" d="M141 1434h158v-1434h-158v1434z" />
<glyph unicode="J" horiz-adv-x="571" d="M281 1434h157v-973q0 -252 -86 -369t-278 -117h-62v142h45q123 0 173.5 75.5t50.5 268.5v973z" />
<glyph unicode="K" horiz-adv-x="1140" d="M141 1434h160v-619l586 619h207l-639 -666l684 -768h-211l-627 702v-702h-160v1434z" />
<glyph unicode="L" horiz-adv-x="931" d="M141 1434h158v-1289h623v-145h-781v1434z" />
<glyph unicode="M" horiz-adv-x="1581" d="M1151 1434h12l387 -1434h-168l-256 942l-340 -942l-333 942l-256 -942h-168l391 1434h10l361 -1018z" />
<glyph unicode="N" horiz-adv-x="1232" d="M1092 0h-19l-776 995v-995h-156v1436h13l782 -1006v1004h156v-1434z" />
<glyph unicode="O" horiz-adv-x="1533" d="M766 1321q-227 0 -374.5 -165t-147.5 -445q0 -276 145.5 -442.5t376.5 -166.5q227 0 373.5 164t146.5 445q0 276 -145.5 443t-374.5 167zM766 1456q299 0 483.5 -203.5t184.5 -541.5t-180.5 -537t-487.5 -199t-488.5 199t-181.5 537t183.5 541.5t486.5 203.5z" />
<glyph unicode="P" horiz-adv-x="1007" d="M299 1292v-540h211q129 0 206 67.5t77 202.5q0 264 -283 270h-211zM141 1434h369q440 0 440 -412q0 -205 -113.5 -306.5t-326.5 -101.5h-211v-614h-158v1434z" />
<glyph unicode="Q" horiz-adv-x="1501" d="M750 1321q-227 0 -375 -165t-148 -445q0 -276 145.5 -442.5t377.5 -166.5q190 0 325 117l-219 273h168l139 -175q106 158 107 394q0 276 -145.5 443t-374.5 167zM1257 199l160 -199h-168l-84 106q-170 -131 -415 -131q-307 0 -488.5 199t-181.5 537t183 541.5t487 203.5 q299 0 483 -203.5t184 -541.5q0 -317 -160 -512z" />
<glyph unicode="R" horiz-adv-x="1021" d="M141 1434h369h6q190 0 299 -101.5t109 -302.5q-10 -172 -80 -261t-193 -126l326 -643h-170l-320 614h-188v-614h-158v1434zM299 1292v-534h211q129 0 196.5 69.5t67.5 202.5q0 256 -264 262h-211z" />
<glyph unicode="S" horiz-adv-x="1024" d="M909 1282l-98 -115q-127 154 -268 154q-287 0 -289 -258q2 -96 55 -150.5t183 -83.5l104 -24q188 -43 274 -143.5t86 -274.5q0 -203 -121.5 -307.5t-357.5 -104.5q-92 0 -203.5 42t-195.5 114l102 127q135 -135 297 -145q322 0 322 258q0 113 -55.5 176t-194.5 94 l-107 25q-176 41 -257 137t-83 250q0 188 108.5 295.5t311.5 107.5q229 -2 387 -174z" />
<glyph unicode="T" horiz-adv-x="1062" d="M20 1434h1022v-150h-432v-1284h-155v1284h-435v150z" />
<glyph unicode="U" horiz-adv-x="1220" d="M129 1434h158v-879q0 -240 75.5 -347.5t249.5 -107.5q172 0 250 107.5t78 347.5v879h152v-904q0 -555 -480 -555q-483 0 -483 555v904z" />
<glyph unicode="V" horiz-adv-x="1191" d="M608 0h-20l-565 1434h163l416 -1024l408 1024h161z" />
<glyph unicode="W" horiz-adv-x="1597" d="M444 0h-18l-387 1434h168l256 -936l334 936l340 -936l256 936h168l-385 -1434h-19l-356 1014z" />
<glyph unicode="X" horiz-adv-x="1114" d="M74 1434h168l323 -545l326 545h172l-416 -691l443 -743h-168l-369 618l-369 -618h-172l459 764z" />
<glyph unicode="Y" horiz-adv-x="1075" d="M8 1434h172l361 -598l358 598h168l-453 -746v-688h-153v688z" />
<glyph unicode="Z" horiz-adv-x="1087" d="M49 1434h985l-739 -1289h758v-145h-1022l737 1282h-719v152z" />
<glyph unicode="[" horiz-adv-x="550" d="M141 1434h359v-129h-203v-1432h203v-129h-359v1690z" />
<glyph unicode="\" horiz-adv-x="634" d="M170 1223l438 -1377h-145l-436 1377h143z" />
<glyph unicode="]" horiz-adv-x="548" d="M408 1434v-1690h-357v129h203v1432h-203v129h357z" />
<glyph unicode="^" horiz-adv-x="1167" d="M666 1223l456 -457h-170l-368 344l-373 -344h-166l455 457h166z" />
<glyph unicode="_" horiz-adv-x="880" d="M885 -276v-117h-895v117h895z" />
<glyph unicode="`" horiz-adv-x="532" d="M188 1458l226 -321l-82 -62l-269 307z" />
<glyph unicode="a" d="M782 776v142h154v-918h-154v133q-92 -154 -301 -153q-172 0 -279.5 130t-107.5 345q0 217 107.5 350t279.5 133q207 0 301 -162zM254 455q0 -166 68.5 -261.5t193.5 -95.5t195.5 95.5t70.5 261.5t-70.5 261t-195.5 95q-121 0 -191.5 -94t-70.5 -262z" />
<glyph unicode="b" horiz-adv-x="1081" d="M823 454.5q0 163.5 -70.5 260t-191.5 96.5t-192.5 -94t-71.5 -262q0 -164 68.5 -260.5t195.5 -96.5q121 0 191.5 96.5t70.5 260zM297 776q98 162 299 162q172 0 278.5 -133t106.5 -350q0 -213 -105.5 -344t-279.5 -131q-201 0 -299 153v-133h-156v1536h156v-760z" />
<glyph unicode="c" horiz-adv-x="907" d="M551 938h16q166 0 289 -111l-102 -114q-88 94 -201 94q-125 0 -214 -105.5t-89 -249t89 -245t214 -101.5q117 0 201 91l102 -121q-154 -100 -276 -101q-6 0 -14.5 1t-14.5 1q-193 0 -329 137.5t-136 338.5q0 203 136 344t329 141z" />
<glyph unicode="d" d="M782 776v760h154v-1536h-154v133q-92 -154 -301 -153q-172 0 -279.5 130t-107.5 345q0 217 107.5 350t279.5 133q207 0 301 -162zM254 455q0 -166 68.5 -261.5t193.5 -95.5t195.5 95.5t70.5 261.5t-70.5 261t-195.5 95q-121 0 -191.5 -94t-70.5 -262z" />
<glyph unicode="e" horiz-adv-x="1032" d="M842 233l96 -86q-123 -166 -387 -170q-193 0 -327 137.5t-134 338.5q0 205 130 345t321 140h8q182 0 292.5 -115.5t127.5 -316.5v-51v-4h-719q0 -141 89 -243t214 -102h16q164 0 273 127zM266 580h545q-18 117 -92 172t-176 55q-92 0 -176.5 -74.5t-100.5 -152.5z" />
<glyph unicode="f" horiz-adv-x="579" d="M655 1536v-127h-147q-80 0 -111.5 -49t-36.5 -143v-299h170v-117h-170v-801h-155v801h-148v117h148v282q0 330 305 336h145z" />
<glyph unicode="g" d="M782 469q0 162 -69.5 252t-196.5 90q-123 0 -191.5 -89t-68.5 -253t66.5 -255t193.5 -91t196.5 91t69.5 255zM936 0q0 -461 -434 -461h-25q-100 0 -192 36t-148 103l113 101q78 -115 229 -115q303 0 303 305v191q-90 -160 -301 -160q-172 0 -279.5 129t-107.5 340 q0 209 106.5 339t280.5 130q205 0 301 -162v142h154v-918z" />
<glyph unicode="h" horiz-adv-x="1058" d="M930 553v-553h-156v547q0 256 -209 260q-125 0 -194.5 -77t-73.5 -214v-516h-156v1536h156v-764q111 166 303 166q160 0 245 -97.5t85 -287.5z" />
<glyph unicode="i" horiz-adv-x="438" d="M141 918h156v-918h-156v918zM219 1382q43 0 74 -30.5t31 -73.5t-31 -72.5t-74 -29.5t-72.5 29.5t-29.5 72.5t29.5 73.5t72.5 30.5z" />
<glyph unicode="j" horiz-adv-x="438" d="M141 918h156v-1379h-156v1379zM219 1382q43 0 74 -30.5t31 -73.5t-31 -72.5t-74 -29.5t-72.5 29.5t-29.5 72.5t29.5 73.5t72.5 30.5z" />
<glyph unicode="k" horiz-adv-x="1001" d="M141 1536h156v-1018l461 400h196l-499 -433l522 -485h-203l-477 446v-446h-156v1536z" />
<glyph unicode="l" horiz-adv-x="438" d="M141 1536h156v-1536h-156v1536z" />
<glyph unicode="m" horiz-adv-x="1644" d="M881 739q109 199 325 199q147 0 228.5 -100.5t81.5 -284.5v-553h-156v547q0 260 -195 260q-119 0 -187.5 -77t-72.5 -214v-516h-153v547q0 260 -197 260q-119 0 -186.5 -79t-71.5 -212v-516h-156v918h156v-146q109 166 301 166q205 0 283 -199z" />
<glyph unicode="n" horiz-adv-x="1058" d="M930 553v-553h-156v547q0 256 -209 260q-125 0 -194.5 -77t-73.5 -214v-516h-156v918h156v-146q111 166 303 166q160 0 245 -97.5t85 -287.5z" />
<glyph unicode="o" horiz-adv-x="1101" d="M551 938q190 0 324.5 -140.5t134.5 -342.5q0 -201 -134.5 -339.5t-324.5 -138.5q-193 0 -329 137.5t-136 338.5q0 203 136 344t329 141zM553 807q-125 0 -214 -105.5t-89 -249t89 -245t214 -101.5t213 101.5t88 245t-89 249t-212 105.5z" />
<glyph unicode="p" horiz-adv-x="1081" d="M297 133v-594h-156v1379h156v-142q98 162 299 162q172 0 278.5 -133t106.5 -350q0 -213 -105.5 -344t-279.5 -131q-201 -1 -299 153zM823 454.5q0 163.5 -70.5 260t-191.5 96.5t-192.5 -94t-71.5 -262q0 -164 68.5 -260.5t195.5 -96.5q121 0 191.5 96.5t70.5 260z" />
<glyph unicode="q" d="M254 455q0 -166 68.5 -261.5t193.5 -95.5t195.5 95.5t70.5 261.5t-70.5 261t-195.5 95q-121 0 -191.5 -94t-70.5 -262zM782 133q-94 -158 -301 -158q-172 0 -279.5 132.5t-107.5 347.5q0 217 107.5 350t279.5 133q207 0 301 -162v142h154v-1379h-154v594z" />
<glyph unicode="r" horiz-adv-x="745" d="M723 909l-53 -139q-59 35 -103 35q-131 0 -198.5 -83t-71.5 -241v-481h-156v918h156v-146q96 166 317 166q58 0 109 -29z" />
<glyph unicode="s" horiz-adv-x="841" d="M727 819l-88 -100q-96 90 -197 90q-80 0 -130 -40t-50 -110q6 -102 211 -145q287 -74 287 -260v-4q0 -131 -89 -202t-268 -71q-86 0 -174 39t-143 107l113 96q82 -113 209 -113q106 0 149 24t45 91q0 76 -41 105.5t-147 56.5q-150 41 -220.5 101.5t-72.5 168.5 q0 129 89 207t239 78q147 0 278 -119z" />
<glyph unicode="t" horiz-adv-x="534" d="M344 1280v-362h127v-117h-127v-801h-154v801h-127v117h127v362h154z" />
<glyph unicode="u" horiz-adv-x="1044" d="M129 360v558h152v-551q0 -127 66.5 -194t176.5 -67q123 0 178.5 67t57.5 222v523h155v-558q0 -176 -103 -279.5t-277 -103.5h-11q-172 0 -283.5 100.5t-111.5 282.5z" />
<glyph unicode="v" horiz-adv-x="987" d="M506 0h-25l-448 918h170l301 -599l280 599h172z" />
<glyph unicode="w" horiz-adv-x="1429" d="M973 0h-23l-237 567l-230 -567h-22l-422 918h170l278 -566l226 566l248 -588l262 588h174z" />
<glyph unicode="x" horiz-adv-x="989" d="M930 918l-340 -449l356 -469h-182l-270 358l-277 -358h-182l364 479l-329 439h180l248 -330l252 330h180z" />
<glyph unicode="y" horiz-adv-x="1107" d="M813 469v449h154v-920q0 -459 -435 -459h-22q-98 0 -191.5 36t-150.5 103l113 101q78 -115 229 -115q303 0 303 305v154q-82 -145 -301 -146q-170 0 -278.5 138.5t-108.5 353.5v449h162v-449q0 -164 66.5 -256t193.5 -92q125 0 195.5 92t70.5 256z" />
<glyph unicode="z" horiz-adv-x="899" d="M90 918h733v-140l-579 -659h579v-119h-751v133l579 664h-561v121z" />
<glyph unicode="{" horiz-adv-x="729" d="M688 -168v-129h-51q-211 0 -281.5 64.5t-70.5 261.5v217q0 131 -44 184t-165 53h-56v131h56q119 0 164 51.5t45 186.5v217q0 201 69.5 267.5t282.5 66.5h51v-129h-57q-117 0 -154 -38t-39 -171v-223q0 -143 -36.5 -207t-131.5 -86q94 -27 131 -90.5t37 -202.5v-225 q0 -121 36 -160t157 -39h57z" />
<glyph unicode="|" horiz-adv-x="423" d="M283 1434v-1741h-142v1741h142z" />
<glyph unicode="}" horiz-adv-x="727" d="M41 -168h59q119 0 154 38t35 161v225q0 139 36.5 202.5t131.5 90.5q-92 23 -130 86t-38 207v223q0 129 -36 169t-153 40h-59v129h53q211 0 280.5 -66.5t69.5 -267.5v-217q0 -135 45.5 -186.5t165.5 -51.5h50v-131h-50q-121 0 -166 -50t-45 -187v-217q0 -197 -69.5 -261.5 t-280.5 -64.5h-53v129z" />
<glyph unicode="~" horiz-adv-x="1290" d="M1174 670v-150q-158 -117 -322 -119q-113 0 -229 52q-113 59 -226 59q-143 0 -301 -131v145q170 121 322 121q115 0 227 -53q121 -57 225 -57q146 0 304 133z" />
<glyph unicode="&#xa1;" horiz-adv-x="595" d="M383 0h-170v657l10 338h150l10 -338v-657zM301 1454q43 0 74 -30.5t31 -73.5t-31 -73t-74 -30t-72.5 30t-29.5 73t29.5 73.5t72.5 30.5z" />
<glyph unicode="&#xa2;" horiz-adv-x="866" d="M487 104v703q-125 -14 -193.5 -107.5t-68.5 -244.5q0 -150 67.5 -243.5t194.5 -107.5zM807 881v-142q-125 68 -236 70v-709q121 6 236 72v-141q-96 -41 -236 -51v-234h-84v238q-203 12 -313.5 135t-110.5 336q0 215 109 340t315 141v238h84v-238q140 -6 236 -55z" />
<glyph unicode="&#xa3;" horiz-adv-x="929" d="M934 1196l-90 -102q-47 53 -67.5 72.5t-57.5 38t-82 18.5h-6q-104 0 -159.5 -74t-55.5 -256v-193h321v-131h-321v-419h467v-150h-834v150h199v419h-166v131h166v213q0 449 375 455q100 -4 183 -49t128 -123z" />
<glyph unicode="&#xa4;" horiz-adv-x="1083" d="M741 893l174 188l97 -104l-176 -184q61 -104 61 -217t-66 -214l179 -186l-97 -104l-174 186q-96 -68 -198 -68q-109 0 -203 66l-172 -186l-94 104l172 186q-61 113 -62 215q0 115 64 213l-172 187l96 102l172 -186q92 68 199 67q104 1 200 -65zM764 578q0 96 -64.5 166.5 t-158.5 70.5q-90 0 -159 -68.5t-69 -168.5q0 -102 65.5 -174t162.5 -72q94 0 158.5 72t64.5 174z" />
<glyph unicode="&#xa5;" horiz-adv-x="1034" d="M950 406h-346v-406h-170v406h-350v110h350v47l-69 142h-281v108h223l-268 533h162l317 -635l318 635h161l-268 -533h221v-108h-278l-70 -142v-47h348v-110z" />
<glyph unicode="&#xa6;" horiz-adv-x="421" d="M281 332v-617h-140v617h140zM281 1174v-623h-140v623h140z" />
<glyph unicode="&#xa7;" horiz-adv-x="831" d="M303 842q-102 -84 -104 -164q0 -72 57 -130.5t268 -178.5q104 82 105 163q0 70 -61.5 131.5t-264.5 178.5zM682 1315v-146q-143 68 -240 70q-78 0 -126 -35t-48 -102q0 -76 176 -184q211 -143 265.5 -199.5t54.5 -159.5q0 -158 -152 -256q92 -88 99 -203 q0 -123 -87 -197.5t-231 -74.5q-127 0 -262 49v143q131 -57 242 -63q182 0 182 137q0 86 -184 203l-23 14q-176 111 -230.5 173.5t-54.5 154.5q0 178 152 264q-92 74 -98 205q0 115 84 187.5t225 72.5q133 0 256 -53z" />
<glyph unicode="&#xa8;" horiz-adv-x="757" d="M203 1311q41 0 69.5 -31t28.5 -74t-28.5 -73.5t-69.5 -30.5t-70 30.5t-29 73.5t29 74t70 31zM541 1311q41 0 69.5 -31t28.5 -74t-28.5 -73.5t-69.5 -30.5t-70 30.5t-29 73.5t29 74t70 31z" />
<glyph unicode="&#xa9;" horiz-adv-x="1458" d="M725 1337q279 0 467 -200.5t188 -470.5q0 -276 -192.5 -471t-462.5 -195q-272 0 -461.5 196.5t-189.5 469.5q0 287 195.5 479t455.5 192zM725 1243q-229 0 -396 -171t-167 -406q0 -240 168 -408t395 -168q242 0 404.5 170t162.5 406q0 172 -84 306t-211 200.5t-272 70.5z M991 1022v-117q-94 53 -231 60q-131 0 -205 -77t-74 -222q0 -143 76 -222t211 -79q117 0 223 57v-113q-109 -49 -241 -53q-186 0 -300 109.5t-114 300.5q0 186 111.5 295.5t302.5 109.5q130 0 241 -49z" />
<glyph unicode="&#xaa;" horiz-adv-x="823" d="M117 532h577v-112h-577v112zM692 1051v-408h-127v102q-78 -121 -235 -120q-104 0 -169 60t-67 165q0 246 318 246h153v4q0 164 -192 164q-111 0 -228 -62v115q127 51 242 51q305 0 305 -317zM459 993q-133 0 -187.5 -29.5t-54.5 -99.5q0 -57 40 -93t116 -36 q86 0 139 65.5t53 166.5v26h-106z" />
<glyph unicode="&#xab;" horiz-adv-x="921" d="M811 866v-157l-254 -220l254 -221v-153l-393 340v67zM444 866v-157l-249 -220l249 -221v-153l-391 340v67z" />
<glyph unicode="&#xac;" horiz-adv-x="1284" d="M66 705h1077v-472h-142v332h-935v140z" />
<glyph unicode="&#xad;" horiz-adv-x="735" d="M141 524h453v-135h-453v135z" />
<glyph unicode="&#xae;" horiz-adv-x="1103" d="M551 1386q-168 0 -289 -129t-121 -305q0 -180 122 -306t288 -126q172 0 289.5 128t117.5 304q0 193 -121.5 311.5t-285.5 122.5zM551 1456q201 0 338 -151.5t137 -352.5q0 -209 -139 -354t-336 -145q-199 0 -336 147.5t-137 351.5q0 215 141.5 359.5t331.5 144.5z M535 1176h-80v-189h80q68 0 97.5 20.5t29.5 73.5q0 51 -29.5 71t-97.5 24zM537 1245q227 0 227 -162q0 -119 -131 -147q23 -4 88 -107l88 -151h-109l-84 145q-37 59 -59 77t-59 22h-43v-244h-101v567h183z" />
<glyph unicode="&#xaf;" horiz-adv-x="784" d="M141 1249h502v-123h-502v123z" />
<glyph unicode="&#x2c9;" horiz-adv-x="784" d="M141 1249h502v-123h-502v123z" />
<glyph unicode="&#xb0;" horiz-adv-x="690" d="M344 1268q-59 0 -102 -42t-43 -106q0 -59 42 -101t103 -42q59 0 100 40t41 103q0 57 -41 102.5t-100 45.5zM344 1366q115 0 175.5 -74.5t64.5 -171.5q0 -96 -70 -168.5t-170 -72.5q-104 0 -173 69.5t-69 171.5q0 100 70 173t172 73z" />
<glyph unicode="&#xb1;" horiz-adv-x="923" d="M530 1155v-348h326v-156h-326v-348h-143v348h-319v156h319v348h143zM68 150h788v-150h-788v150z" />
<glyph unicode="&#xb2;" horiz-adv-x="749" d="M221 743h430v-98h-581v98l348 301q102 96 102 162q0 55 -50 92t-132 37q-61 0 -105.5 -26.5t-48.5 -61.5h-116q0 80 79.5 137.5t188.5 61.5q139 0 224 -62.5t85 -169.5q0 -104 -104 -217z" />
<glyph unicode="&#xb3;" horiz-adv-x="794" d="M51 827h133q33 -96 181 -96q86 0 137 37t51 100.5t-50 101.5t-138 38v102q78 0 124 29.5t46 83t-45.5 83t-124.5 29.5q-139 0 -164 -90h-129q8 94 87 147.5t206 53.5q133 0 213.5 -56.5t80.5 -156.5q0 -133 -167 -172q88 -14 137 -65.5t51 -127.5q0 -113 -82 -174 t-233 -61q-281 -1 -314 194z" />
<glyph unicode="&#xb4;" horiz-adv-x="536" d="M328 1454l139 -72l-295 -338l-90 68z" />
<glyph unicode="&#xb5;" horiz-adv-x="1069" d="M141 -451v1369h156v-572q0 -242 227 -242q250 0 250 277v537h158v-918h-158v102q-86 -123 -237 -122q-174 0 -240 120v-551h-156z" />
<glyph unicode="&#x3bc;" horiz-adv-x="1069" d="M141 -451v1369h156v-572q0 -242 227 -242q250 0 250 277v537h158v-918h-158v102q-86 -123 -237 -122q-174 0 -240 120v-551h-156z" />
<glyph unicode="&#xb6;" horiz-adv-x="966" d="M449 1346h376v-1520h-118v1409h-158v-1409h-121v756q-178 16 -278.5 114.5t-100.5 266t110 275.5t290 108z" />
<glyph unicode="&#xb7;" horiz-adv-x="526" d="M260.5 737q63.5 0 108.5 -45t45 -108.5t-45 -108.5t-108.5 -45t-109 45t-45.5 108.5t45.5 108.5t109 45z" />
<glyph unicode="&#xb8;" horiz-adv-x="542" d="M74 -369l176 287h98l-139 -369z" />
<glyph unicode="&#xb9;" horiz-adv-x="473" d="M315 1434v-789h-131v676h-145l55 113h221z" />
<glyph unicode="&#xba;" horiz-adv-x="851" d="M135 532h578v-112h-578v112zM424 1368q150 0 237 -98.5t87 -276.5q0 -170 -87.5 -269t-236.5 -99q-147 0 -236.5 99t-89.5 269q0 172 86 273.5t240 101.5zM424 1264q-88 0 -141.5 -73t-53.5 -198q0 -117 53.5 -188.5t141.5 -71.5t140 73t52 187q0 125 -51 198t-141 73z " />
<glyph unicode="&#xbb;" horiz-adv-x="921" d="M111 866l393 -344v-67l-393 -340v153l254 221l-254 220v157zM475 866l393 -344v-67l-393 -340v153l252 221l-252 220v157z" />
<glyph unicode="&#xbc;" horiz-adv-x="1413" d="M1133 520l-207 -252h207v252zM1260 801v-533h131v-104h-131v-164h-127v164h-412zM932 1368h129l-742 -1391h-129zM297 1368v-788h-131v675h-146l56 113h221z" />
<glyph unicode="&#xbd;" horiz-adv-x="1460" d="M922 1368h129l-742 -1391h-129zM287 1368v-788h-131v675h-146l56 113h221zM983 98h430v-98h-582v98l349 301q104 98 104 162q0 55 -51 92t-133 37q-61 0 -105.5 -26.5t-48.5 -61.5h-117q0 80 81 137.5t188 61.5q139 0 224 -62.5t85 -169.5q0 -104 -104 -217z" />
<glyph unicode="&#xbe;" horiz-adv-x="1644" d="M1362 520l-207 -252h207v252zM1489 801v-533h133v-104h-133v-164h-127v164h-410zM1188 1368h127l-744 -1391h-127zM-33 772h133q33 -96 181 -96q86 0 137 37t51 100.5t-50 101t-138 37.5v103q78 0 124 29.5t46 83t-45.5 83t-124.5 29.5q-139 0 -164 -90h-129 q8 94 87 147.5t206 53.5q133 0 213.5 -56.5t80.5 -156.5q0 -133 -167 -172q88 -14 137 -65.5t51 -127.5q0 -113 -82 -174t-233 -61q-281 -1 -314 194z" />
<glyph unicode="&#xbf;" horiz-adv-x="845" d="M612 309h156q-2 -166 -101.5 -251t-230.5 -85q-139 0 -224 75t-91 200q0 35 13 72.5t29.5 65.5t47.5 64.5l46 53t47 47.5l34 33q10 10 35 38l35 40l28 34q18 23 26.5 37.5t15.5 32.5t7 35q0 2 1 10t1 10q0 43 -21.5 71t-55.5 28h-7h-16q-78 0 -90 -95h-111 q4 100 62.5 167t159.5 67h8q88 -4 160.5 -72.5t72.5 -165.5q0 -100 -54 -180t-151 -166q-154 -143 -155 -215q0 -70 38 -102.5t122 -32.5q68 0 112.5 48t50.5 136zM414 1251q-43 0 -74 31t-31 74t31 72.5t74 29.5t72.5 -29.5t29.5 -72.5t-29.5 -74t-72.5 -31z" />
<glyph unicode="&#xc0;" horiz-adv-x="1171" d="M584 1051l-205 -533h412zM584 1456l577 -1456h-168l-139 371h-535l-141 -371h-168zM537 1942l225 -322l-82 -61l-268 307z" />
<glyph unicode="&#xc1;" horiz-adv-x="1171" d="M584 1051l-205 -533h412zM584 1456l577 -1456h-168l-139 371h-535l-141 -371h-168zM639 1968l139 -72l-295 -337l-90 67z" />
<glyph unicode="&#xc2;" horiz-adv-x="1171" d="M584 1051l-205 -533h412zM584 1456l577 -1456h-168l-139 371h-535l-141 -371h-168zM520 1868h135l209 -262l-110 -47l-166 188l-166 -188l-113 47z" />
<glyph unicode="&#xc3;" horiz-adv-x="1171" d="M584 1051l-205 -533h412zM584 1456l577 -1456h-168l-139 371h-535l-141 -371h-168zM580 1610q-96 63 -134 67h-4q-72 0 -139 -118l-80 61q98 170 215 172q78 0 150 -53q98 -66 131 -66h6q80 0 133 119l92 -61q-23 -66 -90 -119t-133 -53h-2h-8q-67 0 -137 51z" />
<glyph unicode="&#xc4;" horiz-adv-x="1171" d="M584 1051l-205 -533h412zM584 1456l577 -1456h-168l-139 371h-535l-141 -371h-168zM416 1767q41 0 69.5 -30.5t28.5 -73.5t-28.5 -73.5t-69.5 -30.5t-70 30.5t-29 73.5t29 73.5t70 30.5zM754 1767q41 0 69.5 -30.5t28.5 -73.5t-28.5 -73.5t-69.5 -30.5t-70 30.5t-29 73.5 t29 73.5t70 30.5z" />
<glyph unicode="&#xc5;" horiz-adv-x="1171" d="M694 1714q0 43 -32.5 74t-77.5 31t-76 -29t-31 -76q0 -43 31 -74.5t76 -31.5q47 0 78.5 30.5t31.5 75.5zM782 1714q0 -80 -57 -135t-141 -55q-80 0 -137.5 55t-57.5 135q0 78 56.5 135.5t138.5 57.5t138 -55.5t60 -137.5zM584 1051l-205 -533h412zM584 1456l577 -1456 h-168l-139 371h-535l-141 -371h-168z" />
<glyph unicode="&#xc6;" horiz-adv-x="1171" d="M584 1051l-203 -533h410zM1741 0h-758l-139 371h-525l-141 -371h-168l574 1456l8 -22h631l61 -150h-631l142 -366h635l59 -150h-627l236 -623h585z" />
<glyph unicode="&#xc7;" horiz-adv-x="1161" d="M1098 1327l-84 -113q-141 106 -305 107q-221 0 -343 -157.5t-122 -454.5q0 -293 117.5 -449t347.5 -156q170 0 301 101l84 -109q-166 -123 -396 -123q-285 0 -449.5 196t-164.5 540q0 346 165 546.5t449 200.5q218 0 400 -129zM471 -369l176 287h98l-139 -369z" />
<glyph unicode="&#xc8;" horiz-adv-x="1007" d="M141 1434h793v-150h-635v-366h635v-150h-635v-623h651v-145h-809v1434zM496 1942l225 -322l-82 -61l-268 307z" />
<glyph unicode="&#xc9;" horiz-adv-x="1007" d="M141 1434h793v-150h-635v-366h635v-150h-635v-623h651v-145h-809v1434zM600 1968l139 -72l-295 -337l-90 67z" />
<glyph unicode="&#xca;" horiz-adv-x="1007" d="M141 1434h793v-150h-635v-366h635v-150h-635v-623h651v-145h-809v1434zM479 1868h135l209 -262l-110 -47l-166 188l-166 -188l-113 47z" />
<glyph unicode="&#xcb;" horiz-adv-x="1007" d="M141 1434h793v-150h-635v-366h635v-150h-635v-623h651v-145h-809v1434zM377 1767q41 0 69.5 -30.5t28.5 -73.5t-28.5 -73.5t-69.5 -30.5t-69.5 30.5t-28.5 73.5t28.5 73.5t69.5 30.5zM715 1767q41 0 69.5 -30.5t28.5 -73.5t-28.5 -73.5t-69.5 -30.5t-70 30.5t-29 73.5 t29 73.5t70 30.5z" />
<glyph unicode="&#xcc;" horiz-adv-x="440" d="M170 1942l225 -322l-82 -61l-268 307zM141 1434h158v-1434h-158v1434z" />
<glyph unicode="&#xcd;" horiz-adv-x="440" d="M274 1968l140 -72l-295 -337l-90 67zM141 1434h158v-1434h-158v1434z" />
<glyph unicode="&#xce;" horiz-adv-x="440" d="M154 1868h135l209 -262l-111 -47l-166 188l-166 -188l-112 47zM141 1434h158v-1434h-158v1434z" />
<glyph unicode="&#xcf;" horiz-adv-x="440" d="M51 1767q41 0 70 -30.5t29 -73.5t-29 -73.5t-70 -30.5t-69.5 30.5t-28.5 73.5t28.5 73.5t69.5 30.5zM389 1767q41 0 69.5 -30.5t28.5 -73.5t-28.5 -73.5t-69.5 -30.5t-69.5 30.5t-28.5 73.5t28.5 73.5t69.5 30.5zM141 1434h158v-1434h-158v1434z" />
<glyph unicode="&#xd0;" horiz-adv-x="1335" d="M47 694h143v652h349q362 0 534 -163t172 -511t-171 -510t-535 -162h-349v559h-143v135zM360 1194v-500h138v-135h-138v-414h205q260 0 381 127t121 400q0 270 -121 396t-381 126h-205z" />
<glyph unicode="&#xd1;" horiz-adv-x="1232" d="M1092 0h-19l-776 995v-995h-156v1436h13l782 -1006v1004h156v-1434zM608 1610q-96 63 -133 67h-4q-72 0 -139 -118l-80 61q98 170 215 172q78 0 149 -53q98 -66 132 -66h6q80 0 133 119l92 -61q-23 -66 -90.5 -119t-132.5 -53h-2h-9q-67 0 -137 51z" />
<glyph unicode="&#xd2;" horiz-adv-x="1533" d="M766 1321q-227 0 -374.5 -165t-147.5 -445q0 -276 145.5 -442.5t376.5 -166.5q227 0 373.5 164t146.5 445q0 276 -145.5 443t-374.5 167zM766 1456q299 0 483.5 -203.5t184.5 -541.5t-180.5 -537t-487.5 -199t-488.5 199t-181.5 537t183.5 541.5t486.5 203.5zM715 1942 l225 -322l-82 -61l-268 307z" />
<glyph unicode="&#xd3;" horiz-adv-x="1533" d="M766 1321q-227 0 -374.5 -165t-147.5 -445q0 -276 145.5 -442.5t376.5 -166.5q227 0 373.5 164t146.5 445q0 276 -145.5 443t-374.5 167zM766 1456q299 0 483.5 -203.5t184.5 -541.5t-180.5 -537t-487.5 -199t-488.5 199t-181.5 537t183.5 541.5t486.5 203.5zM817 1968 l139 -72l-294 -337l-91 67z" />
<glyph unicode="&#xd4;" horiz-adv-x="1533" d="M766 1321q-227 0 -374.5 -165t-147.5 -445q0 -276 145.5 -442.5t376.5 -166.5q227 0 373.5 164t146.5 445q0 276 -145.5 443t-374.5 167zM766 1456q299 0 483.5 -203.5t184.5 -541.5t-180.5 -537t-487.5 -199t-488.5 199t-181.5 537t183.5 541.5t486.5 203.5zM698 1868 h136l208 -262l-110 -47l-166 188l-166 -188l-113 47z" />
<glyph unicode="&#xd5;" horiz-adv-x="1533" d="M766 1321q-227 0 -374.5 -165t-147.5 -445q0 -276 145.5 -442.5t376.5 -166.5q227 0 373.5 164t146.5 445q0 276 -145.5 443t-374.5 167zM766 1456q299 0 483.5 -203.5t184.5 -541.5t-180.5 -537t-487.5 -199t-488.5 199t-181.5 537t183.5 541.5t486.5 203.5zM758 1610 q-96 63 -133 67h-4q-72 0 -140 -118l-80 61q98 170 215 172q78 0 150 -53q98 -66 131 -66h6q80 0 133 119l92 -61q-23 -66 -90 -119t-133 -53h-2h-8q-67 0 -137 51z" />
<glyph unicode="&#xd6;" horiz-adv-x="1533" d="M766 1321q-227 0 -374.5 -165t-147.5 -445q0 -276 145.5 -442.5t376.5 -166.5q227 0 373.5 164t146.5 445q0 276 -145.5 443t-374.5 167zM766 1456q299 0 483.5 -203.5t184.5 -541.5t-180.5 -537t-487.5 -199t-488.5 199t-181.5 537t183.5 541.5t486.5 203.5zM596 1767 q41 0 69.5 -30.5t28.5 -73.5t-28.5 -73.5t-69.5 -30.5t-69.5 30.5t-28.5 73.5t28.5 73.5t69.5 30.5zM934 1767q41 0 69.5 -30.5t28.5 -73.5t-28.5 -73.5t-69.5 -30.5t-69.5 30.5t-28.5 73.5t28.5 73.5t69.5 30.5z" />
<glyph unicode="&#xd7;" horiz-adv-x="1095" d="M1034 991l-385 -416l385 -411l-100 -111l-385 414l-387 -414l-99 111l383 411l-383 416l99 107l387 -416l385 416z" />
<glyph unicode="&#xd8;" horiz-adv-x="1533" d="M766 1321q-227 0 -374.5 -165t-147.5 -445q0 -188 70.5 -328.5t193.5 -212.5l399 1133q-67 18 -141 18zM635 119q57 -16 131 -17q227 0 373.5 164t146.5 445q0 184 -67.5 322t-186.5 214zM952 1434l62 172h145l-78 -222q166 -88 259.5 -263t93.5 -410q0 -338 -180.5 -537 t-487.5 -199q-94 0 -174 21l-60 -168h-145l76 213q-174 80 -270.5 254t-96.5 416q0 338 183.5 541.5t486.5 203.5q106 1 186 -22z" />
<glyph unicode="&#xd9;" horiz-adv-x="1220" d="M129 1434h158v-879q0 -240 75.5 -347.5t249.5 -107.5q172 0 250 107.5t78 347.5v879h152v-904q0 -555 -480 -555q-483 0 -483 555v904zM561 1942l225 -322l-81 -61l-269 307z" />
<glyph unicode="&#xda;" horiz-adv-x="1220" d="M129 1434h158v-879q0 -240 75.5 -347.5t249.5 -107.5q172 0 250 107.5t78 347.5v879h152v-904q0 -555 -480 -555q-483 0 -483 555v904zM664 1968l139 -72l-295 -337l-90 67z" />
<glyph unicode="&#xdb;" horiz-adv-x="1220" d="M129 1434h158v-879q0 -240 75.5 -347.5t249.5 -107.5q172 0 250 107.5t78 347.5v879h152v-904q0 -555 -480 -555q-483 0 -483 555v904zM545 1868h135l209 -262l-111 -47l-166 188l-166 -188l-112 47z" />
<glyph unicode="&#xdc;" horiz-adv-x="1220" d="M129 1434h158v-879q0 -240 75.5 -347.5t249.5 -107.5q172 0 250 107.5t78 347.5v879h152v-904q0 -555 -480 -555q-483 0 -483 555v904zM440 1767q41 0 70 -30.5t29 -73.5t-29 -73.5t-70 -30.5t-69.5 30.5t-28.5 73.5t28.5 73.5t69.5 30.5zM778 1767q41 0 70 -30.5 t29 -73.5t-29 -73.5t-70 -30.5t-69.5 30.5t-28.5 73.5t28.5 73.5t69.5 30.5z" />
<glyph unicode="&#xdd;" horiz-adv-x="1075" d="M8 1434h172l361 -598l358 598h168l-453 -746v-688h-153v688zM590 1968l139 -72l-295 -337l-90 67z" />
<glyph unicode="&#xde;" horiz-adv-x="1001" d="M141 1434h164v-283h213q209 0 317.5 -101.5t108.5 -301.5q0 -395 -426 -404h-213v-344h-164v1434zM305 999v-505h213q117 0 182.5 65.5t65.5 188.5q0 117 -63.5 184t-184.5 67h-213z" />
<glyph unicode="&#xdf;" horiz-adv-x="1071" d="M150 913v142q0 182 100 291.5t282 109.5q143 0 253 -106.5t110 -288.5v-4v-174q-266 -16 -266 -142q0 -43 21.5 -72.5t80.5 -66.5l45 -35q129 -88 175 -170t46 -176q-4 -106 -92 -175t-229 -69q-180 0 -275 132l111 92q31 -37 80 -69t84 -32q162 0 162 150v14 q0 78 -133 164l-76 51q-82 53 -118 112.5t-36 145.5q0 109 63.5 160t202.5 82v78q0 102 -64.5 180t-148.5 78q-104 0 -160.5 -69.5t-60.5 -192.5v-1053h-157v803h-60z" />
<glyph unicode="&#xe0;" d="M782 776v142h154v-918h-154v133q-92 -154 -301 -153q-172 0 -279.5 130t-107.5 345q0 217 107.5 350t279.5 133q207 0 301 -162zM254 455q0 -166 68.5 -261.5t193.5 -95.5t195.5 95.5t70.5 261.5t-70.5 261t-195.5 95q-121 0 -191.5 -94t-70.5 -262zM465 1423l225 -321 l-82 -62l-268 308z" />
<glyph unicode="&#xe1;" d="M782 776v142h154v-918h-154v133q-92 -154 -301 -153q-172 0 -279.5 130t-107.5 345q0 217 107.5 350t279.5 133q207 0 301 -162zM254 455q0 -166 68.5 -261.5t193.5 -95.5t195.5 95.5t70.5 261.5t-70.5 261t-195.5 95q-121 0 -191.5 -94t-70.5 -262zM569 1450l140 -72 l-295 -338l-90 68z" />
<glyph unicode="&#xe2;" d="M782 776v142h154v-918h-154v133q-92 -154 -301 -153q-172 0 -279.5 130t-107.5 345q0 217 107.5 350t279.5 133q207 0 301 -162zM254 455q0 -166 68.5 -261.5t193.5 -95.5t195.5 95.5t70.5 261.5t-70.5 261t-195.5 95q-121 0 -191.5 -94t-70.5 -262zM449 1350h135 l209 -263l-111 -47l-166 189l-166 -189l-112 47z" />
<glyph unicode="&#xe3;" d="M782 776v142h154v-918h-154v133q-92 -154 -301 -153q-172 0 -279.5 130t-107.5 345q0 217 107.5 350t279.5 133q207 0 301 -162zM254 455q0 -166 68.5 -261.5t193.5 -95.5t195.5 95.5t70.5 261.5t-70.5 261t-195.5 95q-121 0 -191.5 -94t-70.5 -262zM508 1092 q-96 63 -133 67h-4q-72 0 -140 -119l-79 62q98 170 215 172q78 0 149 -53q98 -66 131 -66h6q80 0 133 119l93 -62q-23 -66 -90.5 -119t-133.5 -53h-2h-8q-67 1 -137 52z" />
<glyph unicode="&#xe4;" d="M782 776v142h154v-918h-154v133q-92 -154 -301 -153q-172 0 -279.5 130t-107.5 345q0 217 107.5 350t279.5 133q207 0 301 -162zM254 455q0 -166 68.5 -261.5t193.5 -95.5t195.5 95.5t70.5 261.5t-70.5 261t-195.5 95q-121 0 -191.5 -94t-70.5 -262zM346 1249 q41 0 69.5 -30.5t28.5 -73.5t-28.5 -74t-69.5 -31t-69.5 31t-28.5 74t28.5 73.5t69.5 30.5zM684 1249q41 0 69.5 -30.5t28.5 -73.5t-28.5 -74t-69.5 -31t-69.5 31t-28.5 74t28.5 73.5t69.5 30.5z" />
<glyph unicode="&#xe5;" d="M782 776v142h154v-918h-154v133q-92 -154 -301 -153q-172 0 -279.5 130t-107.5 345q0 217 107.5 350t279.5 133q207 0 301 -162zM254 455q0 -166 68.5 -261.5t193.5 -95.5t195.5 95.5t70.5 261.5t-70.5 261t-195.5 95q-121 0 -191.5 -94t-70.5 -262zM625 1231 q0 43 -33 73.5t-78 30.5t-75.5 -28.5t-30.5 -75.5q0 -43 30.5 -75t75.5 -32q47 0 79 31t32 76zM713 1231q0 -80 -57.5 -135.5t-141.5 -55.5q-80 0 -137.5 55.5t-57.5 135.5q0 78 56.5 135t138.5 57t138.5 -55t60.5 -137z" />
<glyph unicode="&#xe6;" horiz-adv-x="1667" d="M221 721l-67 119q150 98 319 98q135 0 199.5 -30.5t154.5 -121.5q143 152 314 152h10h8q182 0 293 -115.5t127 -316.5v-51v-4h-709q0 -143 84 -244t209 -101h17q164 0 272 127l96 -86q-123 -166 -387 -170q-252 2 -366 220q-72 -217 -375 -217q-160 0 -249 73.5 t-89 210.5q0 313 426 314h217v14q0 102 -70.5 159.5t-197.5 57.5q-148 -4 -236 -88zM887 580h534q-18 117 -92 172t-176 55q-90 0 -170 -73.5t-96 -153.5zM725 451h-154q-188 0 -258.5 -38t-70.5 -139q0 -82 52 -129t146 -47q127 0 206 90.5t79 237.5v25z" />
<glyph unicode="&#xe7;" horiz-adv-x="907" d="M551 938h16q166 0 289 -111l-102 -114q-88 94 -201 94q-125 0 -214 -105.5t-89 -249t89 -245t214 -101.5q117 0 201 91l102 -121q-154 -100 -276 -101q-6 0 -14.5 1t-14.5 1q-193 0 -329 137.5t-136 338.5q0 203 136 344t329 141zM326 -369l176 287h98l-139 -369z" />
<glyph unicode="&#xe8;" horiz-adv-x="1032" d="M842 233l96 -86q-123 -166 -387 -170q-193 0 -327 137.5t-134 338.5q0 205 130 345t321 140h8q182 0 292.5 -115.5t127.5 -316.5v-51v-4h-719q0 -141 89 -243t214 -102h16q164 0 273 127zM266 580h545q-18 117 -92 172t-176 55q-92 0 -176.5 -74.5t-100.5 -152.5z M479 1423l226 -321l-82 -62l-269 308z" />
<glyph unicode="&#xe9;" horiz-adv-x="1032" d="M842 233l96 -86q-123 -166 -387 -170q-193 0 -327 137.5t-134 338.5q0 205 130 345t321 140h8q182 0 292.5 -115.5t127.5 -316.5v-51v-4h-719q0 -141 89 -243t214 -102h16q164 0 273 127zM266 580h545q-18 117 -92 172t-176 55q-92 0 -176.5 -74.5t-100.5 -152.5z M582 1450l139 -72l-295 -338l-90 68z" />
<glyph unicode="&#xea;" horiz-adv-x="1032" d="M842 233l96 -86q-123 -166 -387 -170q-193 0 -327 137.5t-134 338.5q0 205 130 345t321 140h8q182 0 292.5 -115.5t127.5 -316.5v-51v-4h-719q0 -141 89 -243t214 -102h16q164 0 273 127zM266 580h545q-18 117 -92 172t-176 55q-92 0 -176.5 -74.5t-100.5 -152.5z M463 1350h135l209 -263l-111 -47l-166 189l-165 -189l-113 47z" />
<glyph unicode="&#xeb;" horiz-adv-x="1032" d="M842 233l96 -86q-123 -166 -387 -170q-193 0 -327 137.5t-134 338.5q0 205 130 345t321 140h8q182 0 292.5 -115.5t127.5 -316.5v-51v-4h-719q0 -141 89 -243t214 -102h16q164 0 273 127zM266 580h545q-18 117 -92 172t-176 55q-92 0 -176.5 -74.5t-100.5 -152.5z M360 1249q41 0 70 -30.5t29 -73.5t-29 -74t-70 -31t-69.5 31t-28.5 74t28.5 73.5t69.5 30.5zM698 1249q41 0 70 -30.5t29 -73.5t-29 -74t-70 -31t-69.5 31t-28.5 74t28.5 73.5t69.5 30.5z" />
<glyph unicode="&#xec;" horiz-adv-x="438" d="M168 1423l225 -321l-82 -62l-266 308zM141 918h156v-918h-156v918z" />
<glyph unicode="&#xed;" horiz-adv-x="438" d="M272 1450l140 -72l-295 -338l-90 68zM141 918h156v-918h-156v918z" />
<glyph unicode="&#xee;" horiz-adv-x="438" d="M152 1350h135l209 -263l-111 -47l-164 189l-168 -189l-110 47zM141 918h156v-918h-156v918z" />
<glyph unicode="&#xef;" horiz-adv-x="438" d="M49 1249q43 0 70.5 -30.5t27.5 -73.5t-27.5 -74t-70.5 -31q-41 0 -69.5 31t-28.5 74t28.5 73.5t69.5 30.5zM389 1249q41 0 69.5 -30.5t28.5 -73.5t-28.5 -74t-69.5 -31q-43 0 -70.5 31t-27.5 74t27.5 73.5t70.5 30.5zM141 918h156v-918h-156v918z" />
<glyph unicode="&#xf0;" horiz-adv-x="1054" d="M553 774q-139 0 -218 -88t-79 -250q0 -154 71.5 -245t194.5 -91q109 0 190 82t81 260q0 154 -69 243t-171 89zM754 932q109 -133 154.5 -243.5t45.5 -252.5q0 -207 -118.5 -331.5t-313.5 -124.5q-193 0 -312.5 124.5t-119.5 331.5q0 203 117 332t303 129q47 0 94 -8 l-282 409l-267 -88l-28 80l235 78l-131 168h180l95 -121l282 90l27 -78l-248 -79z" />
<glyph unicode="&#xf1;" horiz-adv-x="1058" d="M930 553v-553h-156v547q0 256 -209 260q-125 0 -194.5 -77t-73.5 -214v-516h-156v918h156v-146q111 166 303 166q160 0 245 -97.5t85 -287.5zM528 1092q-96 63 -133 67h-4q-72 0 -139 -119l-80 62q98 170 215 172q78 0 150 -53q98 -66 131 -66h6q80 0 133 119l92 -62 q-23 -66 -90.5 -119t-132.5 -53h-2h-8q-68 1 -138 52z" />
<glyph unicode="&#xf2;" horiz-adv-x="1101" d="M551 938q190 0 324.5 -140.5t134.5 -342.5q0 -201 -134.5 -339.5t-324.5 -138.5q-193 0 -329 137.5t-136 338.5q0 203 136 344t329 141zM553 807q-125 0 -214 -105.5t-89 -249t89 -245t214 -101.5t213 101.5t88 245t-89 249t-212 105.5zM498 1423l225 -321l-82 -62 l-268 308z" />
<glyph unicode="&#xf3;" horiz-adv-x="1101" d="M551 938q190 0 324.5 -140.5t134.5 -342.5q0 -201 -134.5 -339.5t-324.5 -138.5q-193 0 -329 137.5t-136 338.5q0 203 136 344t329 141zM553 807q-125 0 -214 -105.5t-89 -249t89 -245t214 -101.5t213 101.5t88 245t-89 249t-212 105.5zM602 1450l139 -72l-295 -338 l-90 68z" />
<glyph unicode="&#xf4;" horiz-adv-x="1101" d="M551 938q190 0 324.5 -140.5t134.5 -342.5q0 -201 -134.5 -339.5t-324.5 -138.5q-193 0 -329 137.5t-136 338.5q0 203 136 344t329 141zM553 807q-125 0 -214 -105.5t-89 -249t89 -245t214 -101.5t213 101.5t88 245t-89 249t-212 105.5zM481 1350h135l209 -263l-110 -47 l-166 189l-166 -189l-113 47z" />
<glyph unicode="&#xf5;" horiz-adv-x="1101" d="M551 938q190 0 324.5 -140.5t134.5 -342.5q0 -201 -134.5 -339.5t-324.5 -138.5q-193 0 -329 137.5t-136 338.5q0 203 136 344t329 141zM553 807q-125 0 -214 -105.5t-89 -249t89 -245t214 -101.5t213 101.5t88 245t-89 249t-212 105.5zM541 1092q-96 63 -133 67h-5 q-72 0 -139 -119l-80 62q98 170 215 172q78 0 150 -53q98 -66 131 -66h6q80 0 133 119l92 -62q-23 -66 -90 -119t-133 -53h-2h-8q-67 1 -137 52z" />
<glyph unicode="&#xf6;" horiz-adv-x="1101" d="M551 938q190 0 324.5 -140.5t134.5 -342.5q0 -201 -134.5 -339.5t-324.5 -138.5q-193 0 -329 137.5t-136 338.5q0 203 136 344t329 141zM553 807q-125 0 -214 -105.5t-89 -249t89 -245t214 -101.5t213 101.5t88 245t-89 249t-212 105.5zM379 1249q41 0 69.5 -30.5 t28.5 -73.5t-28.5 -74t-69.5 -31t-69.5 31t-28.5 74t28.5 73.5t69.5 30.5zM717 1249q41 0 69.5 -30.5t28.5 -73.5t-28.5 -74t-69.5 -31t-70 31t-29 74t29 73.5t70 30.5z" />
<glyph unicode="&#xf7;" horiz-adv-x="1013" d="M47 594h920v-141h-920v141zM504 266q43 0 73.5 -30.5t30.5 -73.5t-30.5 -73t-73.5 -30t-73 30t-30 73t30 73.5t73 30.5zM504 940q43 0 73.5 -30.5t30.5 -73.5t-30.5 -73t-73.5 -30t-73 30t-30 73t30 73.5t73 30.5z" />
<glyph unicode="&#xf8;" horiz-adv-x="1101" d="M551 938q57 0 98 -10l25 96h108l-34 -131q119 -59 190.5 -176t71.5 -262q0 -201 -134.5 -339.5t-324.5 -138.5q-45 0 -68 5l-30 -107h-109l39 135q-133 51 -215 171t-82 272q0 203 136 344t329 141zM709 758l-189 -647q12 -4 33 -5q125 0 213 101.5t88 245.5 q0 94 -39.5 175t-105.5 130zM422 143l190 658q-27 6 -59 6q-125 0 -214 -105.5t-89 -248.5q0 -100 47 -182.5t125 -127.5z" />
<glyph unicode="&#xf9;" horiz-adv-x="1044" d="M129 360v558h152v-551q0 -127 66.5 -194t176.5 -67q123 0 178.5 67t57.5 222v523h155v-558q0 -176 -103 -279.5t-277 -103.5h-11q-172 0 -283.5 100.5t-111.5 282.5zM471 1423l225 -321l-82 -62l-268 308z" />
<glyph unicode="&#xfa;" horiz-adv-x="1044" d="M129 360v558h152v-551q0 -127 66.5 -194t176.5 -67q123 0 178.5 67t57.5 222v523h155v-558q0 -176 -103 -279.5t-277 -103.5h-11q-172 0 -283.5 100.5t-111.5 282.5zM575 1450l140 -72l-295 -338l-90 68z" />
<glyph unicode="&#xfb;" horiz-adv-x="1044" d="M129 360v558h152v-551q0 -127 66.5 -194t176.5 -67q123 0 178.5 67t57.5 222v523h155v-558q0 -176 -103 -279.5t-277 -103.5h-11q-172 0 -283.5 100.5t-111.5 282.5zM455 1350h135l209 -263l-111 -47l-166 189l-166 -189l-112 47z" />
<glyph unicode="&#xfc;" horiz-adv-x="1044" d="M129 360v558h152v-551q0 -127 66.5 -194t176.5 -67q123 0 178.5 67t57.5 222v523h155v-558q0 -176 -103 -279.5t-277 -103.5h-11q-172 0 -283.5 100.5t-111.5 282.5zM354 1249q41 0 70 -30.5t29 -73.5t-29 -74t-70 -31t-69.5 31t-28.5 74t28.5 73.5t69.5 30.5zM692 1249 q41 0 70 -30.5t29 -73.5t-29 -74t-70 -31t-69.5 31t-28.5 74t28.5 73.5t69.5 30.5z" />
<glyph unicode="&#xfd;" horiz-adv-x="1107" d="M813 469v449h154v-920q0 -459 -435 -459h-22q-98 0 -191.5 36t-150.5 103l113 101q78 -115 229 -115q303 0 303 305v154q-82 -145 -301 -146q-170 0 -278.5 138.5t-108.5 353.5v449h162v-449q0 -164 66.5 -256t193.5 -92q125 0 195.5 92t70.5 256zM600 1450l139 -72 l-295 -338l-90 68z" />
<glyph unicode="&#xfe;" horiz-adv-x="1081" d="M297 133v-594h-156v1997h156v-760q98 162 299 162q172 0 278.5 -133t106.5 -350q0 -213 -105.5 -344t-279.5 -131q-201 -1 -299 153zM823 454.5q0 163.5 -70.5 260t-191.5 96.5t-192.5 -94t-71.5 -262q0 -164 68.5 -260.5t195.5 -96.5q121 0 191.5 96.5t70.5 260z" />
<glyph unicode="&#xff;" horiz-adv-x="1107" d="M813 469v449h154v-920q0 -459 -435 -459h-22q-98 0 -191.5 36t-150.5 103l113 101q78 -115 229 -115q303 0 303 305v154q-82 -145 -301 -146q-170 0 -278.5 138.5t-108.5 353.5v449h162v-449q0 -164 66.5 -256t193.5 -92q125 0 195.5 92t70.5 256zM377 1249 q41 0 69.5 -30.5t28.5 -73.5t-28.5 -74t-69.5 -31t-69.5 31t-28.5 74t28.5 73.5t69.5 30.5zM715 1249q41 0 69.5 -30.5t28.5 -73.5t-28.5 -74t-69.5 -31t-70 31t-29 74t29 73.5t70 30.5z" />
<glyph unicode="&#x152;" horiz-adv-x="2136" d="M750 1321q-227 0 -375 -165t-148 -445q0 -276 145.5 -442.5t377.5 -166.5q221 0 364 147.5t156 412.5v88q-12 260 -155.5 415.5t-364.5 155.5zM1270 1208v226h792v-150h-635v-366h635v-150h-635v-623h652v-145h-809v213q-180 -238 -520 -238q-307 0 -488.5 199 t-181.5 537t183 541.5t487 203.5q334 0 520 -248z" />
<glyph unicode="&#x153;" horiz-adv-x="1812" d="M1614 233l96 -86q-123 -166 -387 -170q-125 0 -227.5 62.5t-163.5 169.5q-135 -231 -379 -232q-193 0 -329 137.5t-136 338.5q0 203 136 344t329 141q250 0 377 -221q59 106 158.5 163.5t224.5 57.5h8q182 0 292.5 -115.5t127.5 -316.5v-51v-4h-719q0 -141 89 -243 t214 -102h16q164 0 273 127zM555 807q-125 0 -214 -105.5t-89 -249t89 -245t214 -101.5t213 101.5t88 245t-89 249t-212 105.5zM1038 580h545q-18 117 -92 172t-176 55q-92 0 -176.5 -74.5t-100.5 -152.5z" />
<glyph unicode="&#x178;" horiz-adv-x="1075" d="M8 1434h172l361 -598l358 598h168l-453 -746v-688h-153v688zM369 1767q41 0 69.5 -30.5t28.5 -73.5t-28.5 -73.5t-69.5 -30.5t-70 30.5t-29 73.5t29 73.5t70 30.5zM707 1767q41 0 69.5 -30.5t28.5 -73.5t-28.5 -73.5t-69.5 -30.5t-70 30.5t-29 73.5t29 73.5t70 30.5z" />
<glyph unicode="&#x2c6;" horiz-adv-x="718" d="M293 1382h135l209 -262l-111 -47l-166 189l-165 -189l-113 47z" />
<glyph unicode="&#x2dc;" horiz-adv-x="796" d="M379 1188q-96 63 -133 67h-4q-72 0 -140 -118l-79 61q98 170 215 172q78 0 149 -53q98 -66 131 -66h6q80 0 133 119l93 -61q-23 -66 -90.5 -119t-133.5 -53h-2h-8q-67 0 -137 51z" />
<glyph unicode="&#x2000;" horiz-adv-x="983" />
<glyph unicode="&#x2001;" horiz-adv-x="1968" />
<glyph unicode="&#x2002;" horiz-adv-x="983" />
<glyph unicode="&#x2003;" horiz-adv-x="1968" />
<glyph unicode="&#x2004;" horiz-adv-x="655" />
<glyph unicode="&#x2005;" horiz-adv-x="491" />
<glyph unicode="&#x2006;" horiz-adv-x="327" />
<glyph unicode="&#x2007;" horiz-adv-x="327" />
<glyph unicode="&#x2008;" horiz-adv-x="245" />
<glyph unicode="&#x2009;" horiz-adv-x="393" />
<glyph unicode="&#x200a;" horiz-adv-x="108" />
<glyph unicode="&#x2010;" horiz-adv-x="735" d="M141 524h453v-135h-453v135z" />
<glyph unicode="&#x2011;" horiz-adv-x="735" d="M141 524h453v-135h-453v135z" />
<glyph unicode="&#x2012;" horiz-adv-x="735" d="M141 524h453v-135h-453v135z" />
<glyph unicode="&#x2013;" horiz-adv-x="1024" d="M141 389v135h742v-135h-742z" />
<glyph unicode="&#x2014;" horiz-adv-x="2048" d="M141 389v135h1766v-135h-1766z" />
<glyph unicode="&#x2018;" horiz-adv-x="460" d="M289 1030h-176v141l137 263h108l-69 -263v-141z" />
<glyph unicode="&#x2019;" horiz-adv-x="450" d="M166 1434h174v-125l-137 -262h-107l70 262v125z" />
<glyph unicode="&#x201a;" horiz-adv-x="452" d="M162 205h176v-142l-139 -256h-107l70 256v142z" />
<glyph unicode="&#x201c;" horiz-adv-x="804" d="M289 1030h-176v141l137 263h108l-69 -263v-141zM633 1030h-178v141l139 263h106l-67 -263v-141z" />
<glyph unicode="&#x201d;" horiz-adv-x="798" d="M164 1434h176v-142l-137 -262h-109l70 262v142zM506 1434h178v-142l-135 -262h-111l68 262v142z" />
<glyph unicode="&#x201e;" horiz-adv-x="796" d="M504 205h178v-142l-135 -256h-111l68 256v142zM162 205h176v-142l-139 -256h-107l70 256v142z" />
<glyph unicode="&#x2022;" horiz-adv-x="716" d="M616 577.5q0 -110.5 -77.5 -190.5t-184.5 -80q-98 0 -175 79t-77 192q0 109 76 187.5t180.5 78.5t181 -78t76.5 -188.5z" />
<glyph unicode="&#x2026;" horiz-adv-x="1339" d="M1108 182q43 0 73.5 -30.5t30.5 -73.5t-30.5 -73t-73.5 -30t-72.5 30t-29.5 73t29.5 73.5t72.5 30.5zM661.5 182q43.5 0 74 -30.5t30.5 -73.5t-30.5 -73t-74 -30t-73 30t-29.5 73t29.5 73.5t73 30.5zM215 182q43 0 73.5 -30.5t30.5 -73.5t-30.5 -73t-73.5 -30t-72.5 30 t-29.5 73t29.5 73.5t72.5 30.5z" />
<glyph unicode="&#x202f;" horiz-adv-x="393" />
<glyph unicode="&#x2039;" horiz-adv-x="555" d="M444 866v-157l-249 -220l249 -221v-153l-391 340v67z" />
<glyph unicode="&#x203a;" horiz-adv-x="557" d="M111 866l393 -344v-67l-393 -340v153l254 221l-254 220v157z" />
<glyph unicode="&#x205f;" horiz-adv-x="491" />
<glyph unicode="&#x20ac;" horiz-adv-x="1093" d="M1016 1243l-80 -104q-98 84 -221 84q-131 0 -216 -89.5t-114 -261.5h485l-47 -108h-450q-8 -39 -8 -84q0 -29 8 -102h375l-50 -113h-313q27 -168 112 -259t218 -91q111 0 198 71l99 -90q-139 -119 -305 -119q-197 0 -327 127t-167 361h-176l45 113h119q-4 82 -4 116 q0 49 4 70h-164l45 108h131q35 231 166 363.5t328 132.5q162 0 309 -125z" />
<glyph unicode="&#x2122;" horiz-adv-x="1302" d="M733 1434l146 -232l139 232h143v-523h-96v435l-162 -271h-47l-170 271v-435h-98v523h145zM494 1434v-88h-170v-435h-95v435h-168v88h433z" />
<glyph unicode="&#xe000;" horiz-adv-x="920" d="M0 920h920v-920h-920v920z" />
<glyph unicode="&#xfb01;" horiz-adv-x="1081" d="M940 918v-918h-154v801h-426v-801h-155v801h-148v117h148v286q0 156 73.5 243t221.5 89h157v-125h-149q-80 0 -111.5 -47t-36.5 -141v-305h580zM864 1382q43 0 74 -30.5t31 -73.5t-31 -72.5t-74 -29.5t-72.5 29.5t-29.5 72.5t29.5 73.5t72.5 30.5z" />
<glyph unicode="&#xfb02;" horiz-adv-x="1081" d="M510 1536h430v-1536h-154v1409h-278q-80 0 -111.5 -50t-36.5 -147v-294h175v-117h-175v-801h-155v801h-148v117h148v278q0 334 305 340z" />
<glyph unicode="&#xfb03;" horiz-adv-x="1609" d="M639 1536v-127h-147q-80 0 -112 -49t-36 -143v-299h414v286q0 156 73.5 243t221.5 89h157v-127h-149q-82 0 -112.5 -46t-35.5 -140v-305h580v-918h-154v801h-426v-801h-155v801h-414v-801h-156v801h-147v117h147v282q0 330 306 336h145zM1417 1382q43 0 74 -30.5 t31 -73.5t-31 -72.5t-74 -29.5t-72.5 29.5t-29.5 72.5t29.5 73.5t72.5 30.5z" />
<glyph unicode="&#xfb04;" horiz-adv-x="1656" d="M655 1536v-127h-147q-80 0 -111.5 -49t-36.5 -143v-299h420v278q0 334 305 340h431v-1536h-154v1409h-279q-80 0 -111.5 -50t-35.5 -147v-294h174v-117h-174v-801h-156v801h-420v-801h-155v801h-148v117h148v282q0 330 305 336h145z" />
</font>
</defs>
</svg>
